<svg width="21" height="21" viewBox="0 0 21 21" fill="none" xmlns="http://www.w3.org/2000/svg">
  <path d="M10.8147 11.0778C10.8147 11.5901 10.8098 12.117 10.8169 12.6437C10.8165 12.8904 10.8651 13.1348 10.9599 13.3625C10.9967 13.4532 11.0519 13.5353 11.1219 13.6036C11.1618 13.6409 11.2091 13.6695 11.2607 13.6875C11.3123 13.7055 11.3671 13.7125 11.4216 13.7081C11.4761 13.7037 11.529 13.6881 11.5771 13.6621C11.6252 13.6361 11.6673 13.6004 11.7008 13.5572C11.8269 13.3632 11.8979 13.1386 11.9065 12.9075C11.9312 12.663 11.9399 12.4171 11.9325 12.1715C11.9325 11.7112 11.9195 11.25 11.9364 10.7891C11.934 10.2118 12.0945 9.64543 12.3995 9.15519C12.569 8.8936 12.7976 8.67549 13.0669 8.51841C13.3361 8.36133 13.6385 8.26969 13.9496 8.25086C14.2834 8.21495 14.6201 8.21394 14.9541 8.24782C15.1582 8.26137 15.3546 8.33156 15.5211 8.45053C15.6876 8.5695 15.8176 8.73252 15.8966 8.9213C15.9852 9.10809 16.0182 9.31642 15.9917 9.52146C15.9653 9.7265 15.8804 9.91961 15.7473 10.0778C15.632 10.2213 15.485 10.3363 15.3179 10.4136C15.1508 10.4909 14.9681 10.5285 14.784 10.5235C14.6632 10.5279 14.5421 10.5282 14.4213 10.5273C14.4068 10.5253 14.3921 10.5264 14.378 10.5305C14.364 10.5346 14.351 10.5416 14.3398 10.5511C14.3287 10.5606 14.3197 10.5723 14.3134 10.5855C14.3071 10.5987 14.3036 10.6131 14.3033 10.6277C14.2772 10.7696 14.2627 10.9134 14.2598 11.0576C14.2598 11.5259 14.2737 11.9946 14.2554 12.4623C14.2503 13.2711 14.0241 14.063 13.6013 14.7524C13.3884 15.1124 13.089 15.4135 12.7301 15.6283C12.3713 15.8431 11.9644 15.9648 11.5466 15.9824C10.4382 16.0407 9.63254 15.5259 9.05527 14.6166C8.70998 14.0585 8.51598 13.4201 8.49237 12.7643C8.43127 11.6224 8.4697 10.4787 8.47247 9.336C8.48973 9.04503 8.61543 8.77109 8.82478 8.56826C9.03413 8.36543 9.3119 8.24845 9.60328 8.24039C9.89465 8.23234 10.1785 8.3338 10.3987 8.52475C10.6189 8.71571 10.7596 8.98228 10.7929 9.27186C10.8402 9.86821 10.797 10.4657 10.8147 11.0778Z" fill="#059A6D"/>
  <path d="M7.34915 11.155C7.34915 11.7245 7.34031 12.2943 7.35164 12.8636C7.34599 13.4972 7.54056 14.1165 7.90762 14.633C8.19858 15.0411 8.5772 15.3789 9.01572 15.6217C9.05443 15.6427 9.12051 15.6493 9.11636 15.7046C9.11304 15.7483 9.05111 15.7541 9.01323 15.10008C8.54401 15.9814 8.02236 16.0505 7.51397 15.9673C7.00557 15.8841 6.53315 15.6524 6.15618 15.3012C5.6822 14.8705 5.34563 14.3097 5.18853 13.6889C5.05886 13.2224 4.99548 12.74 5.00025 12.2559C5.00329 11.3079 5.00025 10.3599 5.00163 9.41184C4.9981 9.14784 5.08542 8.89065 5.24895 8.68337C5.41249 8.47609 5.64231 8.33133 5.89989 8.27333C6.07214 8.2309 6.2518 8.22835 6.42518 8.26589C6.59856 8.30344 6.76108 8.38009 6.90034 8.48999C7.0396 8.59988 7.15192 8.74013 7.22875 8.90004C7.30557 9.05994 7.34485 9.23528 7.34362 9.41267C7.34887 9.99327 7.34362 10.5752 7.34362 11.1567L7.34915 11.155Z" fill="#059A6D"/>
  <path d="M14.4913 6.27278C14.4913 6.52498 14.4165 6.77151 14.2762 6.98113C14.136 7.19076 13.9367 7.35403 13.7036 7.45029C13.4705 7.54655 13.214 7.57147 12.9668 7.52186C12.7195 7.47225 12.4925 7.35036 12.3145 7.17164C12.1366 6.99291 12.0157 6.7654 11.9672 6.51791C11.9186 6.27042 11.9447 6.01409 12.0419 5.7814C12.1392 5.54871 12.3034 5.35013 12.5136 5.21081C12.7238 5.07149 12.9707 4.9977 13.2229 4.99879C13.3901 4.99798 13.5559 5.03042 13.7105 5.09422C13.8651 5.15802 14.0056 5.25193 14.1236 5.37046C14.2416 5.489 14.3349 5.62981 14.398 5.78471C14.4611 5.93961 14.4929 6.10551 14.4913 6.27278Z" fill="url(#paint0_linear_1356_15146)"/>
  <defs>
    <linearGradient id="paint0_linear_1356_15146" x1="11.9434" y1="6.27276" x2="14.4914" y2="6.27276" gradientUnits="userSpaceOnUse">
      <stop stop-color="#FFE300"/>
      <stop offset="1" stop-color="#FFC400"/>
    </linearGradient>
  </defs>
</svg>
